<svg fill="none" height="100" viewBox="0 0 100 100" width="100" xmlns="http://www.w3.org/2000/svg" xmlns:xlink="http://www.w3.org/1999/xlink"><clipPath id="a"><path d="m0 35h100v29h-100z"/></clipPath><rect fill="#231f20" height="100" rx="10" width="100"/><g clip-path="url(#a)"><path d="m100 35h-100v29h100z" fill="#231f20"/><path clip-rule="evenodd" d="m61.2325 45.5221c0-3.2311 1.7738-5.1375 5.5179-5.1375 3.7739 0 5.518 1.9064 5.5163 5.1375v.746h-2.8143v-.9394c0-1.6854-.9563-2.4038-2.702-2.4038-1.716 0-2.702.7184-2.702 2.4038v3.2181h-2.8159zm-7.1035-.6615h-2.8077v13.4769h2.8077zm4.2941-4.1997h-11.3678v2.5403h11.3678zm-35.03 7.4308h7.1563v2.5403h-7.1563zm63.9476 10.2458h-2.806v-7.7055h-4.3734v-2.5403h4.3734v-7.4308h2.806zm-8.8508 0h-2.8061v-17.6766h2.8061zm-68.4499-10.2458h7.1563v2.5403h-7.1563zm11.6569-7.4308h-2.806v17.6766h2.806zm47.7572 13.0088c0 1.6578-.9579 2.4038-2.702 2.4038-1.7177 0-2.702-.746-2.702-2.4038v-3.4814h-2.8159v3.2603c0 3.2311 1.7738 5.1652 5.5179 5.1652 3.7722 0 5.5179-1.9341 5.5179-5.1652v-.7183h-2.8143v.9394zm-29.276-9.9143-1.6565 7.0977h6.0365l1.3163 5.1927v2.2917h-2.806v-2.2364l-.6458-2.7077h-4.4906l-.6177 2.5972v2.3469h-2.8061v-2.2917l3.873-15.3849h3.5922l2.1768 8.5279h-2.7037zm-9.6287 8.5312h-2.806v6.0509h2.806zm-2.806-11.6257h2.806v5.773h-2.806z" fill="#fff" fill-rule="evenodd"/></g></svg>