<svg fill="none" height="131" viewBox="0 0 180 131" width="180" xmlns="http://www.w3.org/2000/svg"><path d="m90.5 129c48.325 0 87.5-28.43 87.5-63.5 0-35.0701-39.175-63.5-87.5-63.5-48.3249 0-87.5 28.4299-87.5 63.5 0 35.07 39.1751 63.5 87.5 63.5z" fill="#f97a68"/><g fill="#fff"><path d="m102.135 71.9205h-6.5016c-.1349 0-.2642-.0521-.3595-.1448s-.1489-.2184-.1489-.3495v-30.9319c0-.1311.0536-.2568.1489-.3495s.2246-.1448.3595-.1448h6.5016c.135 0 .264.0521.36.1448.095.0927.149.2184.149.3495v30.9467c-.004.1285-.06.2505-.154.34-.095.0895-.222.1395-.355.1395z"/><path d="m129.655 60.9968c0 6.653-5.084 11.6007-12.161 11.6007-7.076 0-12.17-4.9477-12.17-11.6007 0-6.564 5.084-11.3684 12.16-11.3684 7.077 0 12.171 4.8044 12.171 11.3684zm-7.046.0445c0-2.8322-2.034-5.1257-5.043-5.1257-3.01 0-5.084 2.2935-5.084 5.1257 0 2.9212 2.033 5.2591 5.084 5.2591 3.05 0 5.043-2.3379 5.043-5.2591z"/><path d="m84.3408 65.6431c-.8118.7017-1.8736 1.067-2.9586 1.0182-2.8672 0-4.4381-1.5273-5.0379-3.5094h15.439c.1499.0002.2942-.0556.403-.1558.1088-.1003.1738-.2374.1816-.3829 0-.5981.0661-1.5422.0661-2.0661 0-6.564-4.9464-10.9236-11.4687-10.9236-7.1679 0-11.9262 4.7649-11.9262 11.3684 0 6.6036 4.9006 11.4178 12.2516 11.4178 3.5178 0 6.5324-1.1417 8.5354-3.1238.0494-.0507.0871-.1111.1108-.177.0236-.066.0326-.1361.0264-.2057-.0063-.0696-.0276-.1371-.0627-.198-.035-.061-.0829-.1141-.1406-.1558l-4.5753-3.1683c-.0974-.0634-.2144-.0922-.3311-.0814-.1168.0108-.2261.0605-.3094.1407zm-3.3755-10.3799c2.4046 0 4.0263 1.2555 4.4431 3.6379h-9.1506c.5491-2.2193 2.1657-3.6576 4.7075-3.6576z"/><path d="m145.763 49.4405c-2.263-.0129-4.458.7522-6.197 2.16v-.9886c0-.1311-.054-.2568-.149-.3495s-.225-.1448-.359-.1448h-6.487c-.135 0-.264.0521-.36.1448-.095.0927-.149.2184-.149.3495v20.8289c0 .1311.054.2568.149.3495.096.0927.225.1448.36.1448h6.497c.135 0 .264-.0521.359-.1448.096-.0927.149-.2184.149-.3495v-11.5661c.038-1.0369.488-2.0191 1.255-2.7397.768-.7206 1.793-1.1233 2.86-1.1233s2.093.4027 2.86 1.1233c.768.7206 1.218 1.7028 1.256 2.7397v11.5661c0 .1311.053.2568.148.3495.096.0927.225.1448.36.1448h6.543c.066 0 .132-.0128.194-.0377.062-.0248.118-.0612.165-.1071s.085-.1004.11-.1604c.026-.0599.039-.1242.039-.1891v-11.9714c-.031-6.2082-3.914-10.0289-9.603-10.0289z"/><path d="m29.8873 71.9208h6.507c.1349 0 .2642-.0521.3595-.1448s.1489-.2184.1489-.3495v-11.9022c.0354-.928.4395-1.8065 1.1273-2.4509s1.6058-1.0044 2.5609-1.0044 1.8731.36 2.5608 1.0044c.6878.6444 1.0919 1.5229 1.1274 2.4509v11.9121c0 .1311.0535.2568.1489.3495.0953.0927.2246.1448.3594.1448h6.4969c.1349 0 .2642-.0521.3595-.1448s.1489-.2184.1489-.3495v-11.8132c0-.9465.3867-1.8542 1.075-2.5235.6884-.6692 1.6219-1.0452 2.5954-1.0452.9734 0 1.907.376 2.5953 1.0452.6884.6693 1.0751 1.577 1.0751 2.5235v11.8132c0 .1311.0535.2568.1489.3495.0953.0927.2246.1448.3594.1448h6.5376c.1348 0 .2641-.0521.3595-.1448.0953-.0927.1489-.2184.1489-.3495v-11.9665c0-6.2081-4.0009-10.0289-9.3692-10.0289-1.4582-.053-2.9126.1777-4.2779.6785-1.3653.5007-2.614 1.2615-3.6729 2.2378-.8559-.95-1.9173-1.7042-3.1082-2.2084-1.1909-.5041-2.4818-.7459-3.7801-.7079-2.0577-.0742-4.064.6351-5.5921 1.9771v-.8205c0-.131-.0535-.2568-.1488-.3495-.0954-.0927-.2247-.1447-.3595-.1447h-6.4918c-.1349 0-.2642.052-.3595.1447s-.1489.2185-.1489.3495v20.8437c.004.1285.0593.2505.1542.34s.2219.1396.3542.1395z"/><path d="m25.0921 80.3823c2.7761 3.2945 6.2698 5.9488 10.2289 7.7714 3.9591 1.8225 8.2849 2.7679 12.6653 2.7679s8.7063-.9454 12.6653-2.7679c3.9591-1.8226 7.4528-4.4769 10.2289-7.7714.0365-.0446.0632-.0959.0787-.1508.0154-.0549.0192-.1123.0111-.1687s-.0279-.1106-.0581-.1594c-.0303-.0487-.0705-.0909-.1181-.1241l-4.5753-3.1486c-.0884-.0622-.1981-.0887-.3062-.074-.108.0148-.206.0696-.2733.1531-2.1839 2.4817-4.8947 4.4742-7.946 5.8403s-6.3706 2.0734-9.7299 2.0734c-3.3592 0-6.6786-.7073-9.7298-2.0734-3.0513-1.3661-5.7621-3.3586-7.946-5.8403-.069-.0828-.1677-.137-.2763-.1517-.1085-.0147-.2187.0113-.3083.0726l-4.5194 3.1486c-.048.0328-.0886.0747-.1194.1233-.0307.0485-.051.1027-.0596.1591-.0085.0564-.0052.1139.0098.169.0151.0552.0415.1067.0777.1516z"/></g></svg>