<svg width="100" height="87" viewBox="0 0 100 87" fill="none" xmlns="http://www.w3.org/2000/svg">
<g clip-path="url(#clip0_209_1254)">
<mask id="mask0_209_1254" style="mask-type:luminance" maskUnits="userSpaceOnUse" x="0" y="0" width="100" height="87">
<path d="M100 0H0V87H100V0Z" fill="white"/>
</mask>
<g mask="url(#mask0_209_1254)">
<path fill-rule="evenodd" clip-rule="evenodd" d="M68.471 71.1606C61.7053 80.5595 50.8459 86.7243 38.5179 86.9135C36.7895 86.9351 35.0982 86.8485 33.433 86.6382C22.5259 85.3209 13.019 79.2691 6.97949 70.5345L21.6034 62.3018C25.5697 67.1174 31.519 70.1729 38.1733 70.1729C44.6582 70.1729 50.475 67.2684 54.4413 62.669L68.471 71.1606Z" fill="#1EB1FC"/>
<path fill-rule="evenodd" clip-rule="evenodd" d="M47.8274 11.0188C47.7247 11.1339 47.6425 11.2386 47.5499 11.3537C46.635 12.5048 45.8127 13.7291 45.083 15.0268C44.1992 16.5441 43.4592 18.1557 42.863 19.8406C42.1436 21.8705 41.6399 24.0053 41.3623 26.2133V9.83624C43.4899 10.0247 45.5763 10.4015 47.591 10.9456C47.6732 10.9666 47.7452 10.9875 47.8274 11.0188Z" fill="#1EB1FC"/>
<path fill-rule="evenodd" clip-rule="evenodd" d="M71.7959 65.4659L57.9102 57.0526C57.9408 57.063 57.9615 57.084 57.9922 57.0945C59.5648 57.8583 61.2095 58.4758 62.9257 58.9362C63.193 59.0094 63.4706 59.0826 63.7379 59.1455C65.927 59.6793 68.1986 59.9512 70.5317 59.9512C71.7242 59.9512 72.9062 59.8778 74.0573 59.742C73.461 61.7198 72.7006 63.6244 71.7959 65.4659Z" fill="#1EB1FC"/>
<path fill-rule="evenodd" clip-rule="evenodd" d="M35.0028 9.96375V26.3806C24.5626 27.9408 16.5506 37.0965 16.5506 48.1578C16.5506 51.2133 17.1603 54.1231 18.2685 56.7739L3.77183 64.9417C2.22365 61.6323 1.12583 58.064 0.558607 54.3174C0.277505 52.5576 0.139712 50.7816 0.107939 48.9622C-0.189051 28.9826 14.5036 12.3177 33.6028 10.0988C34.0643 10.0448 34.5308 10.0017 35.0028 9.96375Z" fill="#1EB1FC"/>
<path fill-rule="evenodd" clip-rule="evenodd" d="M75.7843 47.624C75.7843 47.9483 75.7948 48.2727 75.7843 48.5866C75.7741 50.0832 75.6816 51.5691 75.4965 53.0236C75.2296 55.1794 74.7876 57.2828 74.1914 59.3232C74.1501 59.4593 74.1092 59.6059 74.0576 59.742C72.9065 59.8778 71.7245 59.9512 70.5323 59.9512C68.1992 59.9512 65.9276 59.6793 63.7383 59.1455C63.471 59.0826 63.1934 59.0094 62.9263 58.9362C61.2099 58.4758 59.5652 57.8583 57.9925 57.0945C57.9619 57.084 57.9412 57.063 57.9105 57.0526C57.9001 57.0526 57.9001 57.0525 57.8899 57.0421C57.9412 56.927 57.9925 56.8119 58.0336 56.6863C58.4243 55.7864 58.743 54.8445 59.0101 53.8817C59.4521 52.2597 59.7194 50.5646 59.781 48.8168C59.7914 48.5448 59.8016 48.2727 59.8016 47.9903C59.8016 47.3623 59.7707 46.7553 59.7194 46.1381C58.887 35.9245 51.209 27.6889 41.3623 26.2133C41.6399 24.0053 42.1436 21.8705 42.863 19.8405C43.4592 18.1557 44.1992 16.5441 45.083 15.0268C45.8127 13.7291 46.635 12.5048 47.5499 11.3537C47.6425 11.2386 47.7247 11.1339 47.8274 11.0188C50.4279 11.7199 52.9152 12.714 55.2587 13.9385C62.1761 17.5591 67.8496 23.2939 71.4779 30.305C73.5952 34.4281 75.0136 38.9907 75.5481 43.8357C75.579 44.0974 75.6099 44.3695 75.6303 44.6414C75.7227 45.6252 75.7741 46.6192 75.7843 47.624Z" fill="#1486BC"/>
<path fill-rule="evenodd" clip-rule="evenodd" d="M59.7193 46.1381C59.7709 46.7554 59.8015 47.3623 59.8015 47.9903C59.8015 48.2727 59.7913 48.5449 59.7809 48.8168C59.7193 50.5646 59.452 52.2598 59.01 53.8818C58.7429 54.8446 58.4242 55.7864 58.0335 56.6863C57.9924 56.8119 57.9411 56.927 57.8898 57.0421C49.7082 53.0865 43.6133 45.3741 41.7424 36.1023C41.424 34.5432 41.2286 32.9422 41.1566 31.3097C41.1362 30.8805 41.126 30.4516 41.126 30.0226C41.126 28.84 41.1978 27.6785 41.3211 26.5379C41.3315 26.4333 41.3418 26.3182 41.3622 26.2133C51.2089 27.689 58.8869 35.9245 59.7193 46.1381Z" fill="#9CDFFD"/>
<path fill-rule="evenodd" clip-rule="evenodd" d="M99.928 30.0223C99.928 43.0926 91.7054 54.2063 80.2245 58.2873C79.8029 58.4339 79.3714 58.5804 78.9294 58.7165C77.3876 59.1769 75.7945 59.522 74.1498 59.7315C74.1191 59.7315 74.0883 59.742 74.0574 59.742C74.1089 59.6059 74.1498 59.4593 74.1912 59.3233C74.7874 57.2828 75.2294 55.1794 75.4963 53.0236C75.6814 51.5691 75.7738 50.0832 75.784 48.5866C75.7945 48.2727 75.784 47.9484 75.784 47.624C75.7738 46.6193 75.7225 45.6252 75.63 44.6415C75.6096 44.3695 75.5787 44.0974 75.5478 43.8357C75.0134 38.9905 73.5949 34.4281 71.4776 30.305C67.8494 23.2939 62.1758 17.5591 55.2583 13.9385C52.9149 12.714 50.4276 11.7199 47.8271 11.0188C53.1925 4.34246 61.3738 0.083374 70.532 0.083374C86.7718 0.083374 99.928 13.4885 99.928 30.0223Z" fill="#9CDFFD"/>
</g>
</g>
<defs>
<clipPath id="clip0_209_1254">
<rect width="100" height="87" fill="white"/>
</clipPath>
</defs>
</svg>
